<svg width="20" height="20" viewBox="0 0 20 20" xmlns="http://www.w3.org/2000/svg">
<path fill-rule="evenodd" clip-rule="evenodd" d="M0.0157471 0.0784101V0.70565V0.784055H0.09424H0.172733H0.31402L0.816375 0.846779L1.00476 0.925184L1.06755 1.08199L1.17744 1.25449V1.50538V1.83468V2.11694V2.86963V3.26165V3.88889V8.27958L1.06755 8.53047L0.894868 8.64024L0.722184 8.71864L0.486705 8.79705H0.172733H0.0157471V10.616L0.894868 10.8356L4.08168 19.7581H5.66724L8.72846 11.4158L8.82265 11.2119L8.94824 11.0394L9.08953 10.9297L9.26222 10.8356L9.56049 10.7415H9.93725H10.5181L11.2088 10.8356L11.46 10.9297L11.6484 11.2119L11.774 11.5569V11.8548L11.8368 12.5762L11.774 18.3468V18.4722L11.6484 18.6134L11.46 18.6761H11.2088H10.8792H10.5809V19.7581H19.9844V15.9162H18.9168V16.716V16.9982L18.7442 17.1707L18.6186 17.3902L18.4773 17.547L18.2889 17.7509L18.1005 17.9548L17.8179 18.19L17.5354 18.4722L17.2214 18.6761L16.9388 18.7545L14.8823 18.8486V15.2419H15.7771L16.044 15.3203L16.2952 15.4301L16.515 15.5712L16.6876 15.7751L16.7818 15.9946L16.9388 16.3553V16.5435L17.0801 16.716L17.2685 16.763H17.7552V12.8114H17.0801L16.9388 12.8898L16.876 13.1564L16.7818 13.4543L16.6876 13.6895L16.515 13.8934L16.2952 14.0659L15.9655 14.2227H15.6515L14.8823 14.3011V10.8356H16.515L16.7818 10.9297L17.0801 11.0394L17.3627 11.2119L17.5982 11.4158L17.865 11.6039L18.1005 11.8548L18.2889 12.1214L18.6186 12.4821L18.7442 12.8114L18.9168 13.2348V13.5641L18.9796 13.7679L19.1209 13.8934L19.4192 13.9718H19.9844L19.9216 9.80063H16.2324L16.515 9.56542L16.876 9.40861L17.2685 9.15771L17.5982 8.89113L18.022 8.57751L18.2889 8.21685L18.6186 7.91891L18.9168 7.41712L19.1209 7.00941L19.4192 6.50762L19.5919 5.84902L19.7018 5.2845V4.34364L19.5919 3.7164L19.4192 3.19893L19.1209 2.69714C19.1157 2.68146 19.0676 2.59992 18.9168 2.3992C18.8667 2.33243 18.8177 2.26011 18.7677 2.18638C18.6299 1.98303 18.4848 1.76893 18.2889 1.63083C18.1713 1.54787 18.0017 1.39177 17.8301 1.23373C17.6124 1.0333 17.3914 0.82975 17.2685 0.768374C17.0173 0.533159 16.6719 0.423392 16.044 0.297944C15.5417 0.197586 15.0811 0.13068 14.9137 0.109772C14.7149 0.13068 14.2763 0.175632 14.1131 0.188177C13.6861 0.275991 13.1816 0.412939 12.9828 0.470435C12.9461 0.454754 12.8007 0.470435 12.5118 0.658607C12.223 0.846779 11.8786 1.05063 11.7426 1.12904C11.6484 1.19176 11.438 1.3423 11.3501 1.44266C11.3135 1.48447 11.2472 1.55068 11.1745 1.62328C11.0292 1.76847 10.8582 1.93922 10.8478 1.99149C10.6971 2.1044 10.4815 2.39397 10.3925 2.52465C10.2669 2.61246 10.0995 3.01076 10.0314 3.19893C9.88074 3.47492 9.75933 3.73208 9.71747 3.82617L9.54479 4.34364L9.37211 4.50045L8.64997 4.59454L8.57148 5.2845V5.84902C8.45845 6.3759 8.2732 6.84216 8.19471 7.00941L7.42548 7.91891L6.38937 8.96954L4.44275 8.89113L4.37995 0.987908L4.44275 0.925184H4.56834L4.74102 0.846779H4.9451H5.18058H5.57305V0.015686L0.0157471 0.0784101ZM12.9514 8.12277L12.5275 8.31094H12.3391L12.0252 8.12277L11.7426 7.98164L11.5228 7.80915L11.3815 7.57393L11.2245 7.37008L11.1303 7.16622L11.0833 6.94669L11.1303 6.69579L11.6484 6.02151L13.234 4.57886L14.3172 3.65368L15.1492 2.91667L16.2481 1.99149L16.515 1.85036H16.6406H16.7818L17.6453 2.58737L17.8022 2.79122L17.9278 2.91667V3.13621V3.3087V3.46551L14.6782 6.55466L14.1445 7.04078L13.7834 7.44848L13.2811 7.80915L12.9514 8.12277ZM9.65468 9.75359V7.44848L9.79597 7.63665L9.87446 7.80915L10.0157 7.98164L10.1413 8.12277L10.2512 8.31094L10.3611 8.46775L10.4867 8.62456L10.7065 8.84409L10.8635 9.01658L11.0362 9.18907L11.2245 9.29884L11.3815 9.39293L11.5228 9.47133L11.6484 9.54974L11.7426 9.62814L11.8525 9.69087L11.9467 9.75359H9.65468ZM5.46316 10.177H5.36897L5.32187 10.2554V10.4122L5.25908 10.616L5.16488 10.7258L5.0079 10.7729L4.81951 10.8199L4.66253 10.9297L4.58404 11.0394V11.2433V11.4001L5.98121 15.3203C6.01889 15.3203 6.92837 12.7069 7.37838 11.4001V11.2433V11.0865L7.31559 10.9767L7.2057 10.8199L7.06441 10.7729L6.90743 10.7258H6.64055L6.51496 10.6788L6.49926 10.5847V10.4592V10.3338V10.2554L6.37368 10.177H6.26378H5.46316Z"/>
</svg>
